<?xml version="1.0" encoding="utf-8"?>
<svg viewBox="0.848 0.885 209.812 13.399" width="209.812px" height="13.399px" xmlns="http://www.w3.org/2000/svg">
  <path d="M 0.94 13.885 L 6.646 1.285 L 8.428 1.285 L 14.152 13.885 L 12.262 13.885 L 7.168 2.293 L 7.888 2.293 L 2.794 13.885 Z M 3.37 10.735 L 3.856 9.295 L 10.948 9.295 L 11.47 10.735 Z" fill="currentColor"/>
  <path d="M 16.012 13.885 L 16.012 1.285 L 17.488 1.285 L 25.822 11.635 L 25.048 11.635 L 25.048 1.285 L 26.848 1.285 L 26.848 13.885 L 25.372 13.885 L 17.038 3.535 L 17.812 3.535 L 17.812 13.885 Z" fill="currentColor"/>
  <path d="M 30.615 13.885 L 30.615 1.285 L 32.091 1.285 L 40.425 11.635 L 39.651 11.635 L 39.651 1.285 L 41.451 1.285 L 41.451 13.885 L 39.975 13.885 L 31.641 3.535 L 32.415 3.535 L 32.415 13.885 Z" fill="currentColor"/>
  <path d="M 43.326 13.885 L 49.032 1.285 L 50.814 1.285 L 56.538 13.885 L 54.648 13.885 L 49.554 2.293 L 50.274 2.293 L 45.18 13.885 Z M 45.756 10.735 L 46.242 9.295 L 53.334 9.295 L 53.856 10.735 Z" fill="currentColor"/>
  <path d="M 64.867 6.721 L 71.347 6.721 L 71.347 8.251 L 64.867 8.251 Z M 65.029 12.319 L 72.373 12.319 L 72.373 13.885 L 63.229 13.885 L 63.229 1.285 L 72.121 1.285 L 72.121 2.851 L 65.029 2.851 Z" fill="currentColor"/>
  <path d="M 75.284 13.885 L 75.284 1.285 L 77.084 1.285 L 77.084 12.319 L 83.906 12.319 L 83.906 13.885 Z" fill="currentColor"/>
  <path d="M 85.978 13.885 L 85.978 1.285 L 87.778 1.285 L 87.778 13.885 Z" fill="currentColor"/>
  <path d="M 95.232 14.029 Q 93.792 14.029 92.478 13.588 Q 91.164 13.147 90.408 12.445 L 91.074 11.041 Q 91.794 11.671 92.91 12.085 Q 94.026 12.499 95.232 12.499 Q 96.33 12.499 97.014 12.247 Q 97.698 11.995 98.022 11.554 Q 98.346 11.113 98.346 10.555 Q 98.346 9.907 97.923 9.511 Q 97.5 9.115 96.825 8.872 Q 96.15 8.629 95.34 8.449 Q 94.53 8.269 93.711 8.026 Q 92.892 7.783 92.217 7.405 Q 91.542 7.027 91.128 6.388 Q 90.714 5.749 90.714 4.741 Q 90.714 3.769 91.227 2.95 Q 91.74 2.131 92.811 1.636 Q 93.882 1.141 95.538 1.141 Q 96.636 1.141 97.716 1.429 Q 98.796 1.717 99.588 2.257 L 98.994 3.697 Q 98.184 3.157 97.284 2.914 Q 96.384 2.671 95.538 2.671 Q 94.476 2.671 93.792 2.941 Q 93.108 3.211 92.793 3.661 Q 92.478 4.111 92.478 4.669 Q 92.478 5.335 92.901 5.731 Q 93.324 6.127 93.999 6.361 Q 94.674 6.595 95.484 6.784 Q 96.294 6.973 97.113 7.207 Q 97.932 7.441 98.607 7.819 Q 99.282 8.197 99.696 8.827 Q 100.11 9.457 100.11 10.447 Q 100.11 11.401 99.588 12.22 Q 99.066 13.039 97.977 13.534 Q 96.888 14.029 95.232 14.029 Z" fill="currentColor"/>
  <path d="M 104.361 6.721 L 110.841 6.721 L 110.841 8.251 L 104.361 8.251 Z M 104.523 12.319 L 111.867 12.319 L 111.867 13.885 L 102.723 13.885 L 102.723 1.285 L 111.615 1.285 L 111.615 2.851 L 104.523 2.851 Z" fill="currentColor"/>
  <path d="M 121.244 14.029 Q 120.128 14.029 119.156 13.561 Q 118.184 13.093 117.572 12.211 L 118.616 10.987 Q 119.138 11.707 119.795 12.094 Q 120.452 12.481 121.244 12.481 Q 123.404 12.481 123.404 9.925 L 123.404 2.851 L 118.85 2.851 L 118.85 1.285 L 125.186 1.285 L 125.186 9.835 Q 125.186 11.941 124.187 12.985 Q 123.188 14.029 121.244 14.029 Z" fill="currentColor"/>
  <path d="M 134.537 14.029 Q 133.097 14.029 131.864 13.543 Q 130.631 13.057 129.731 12.184 Q 128.831 11.311 128.327 10.141 Q 127.823 8.971 127.823 7.585 Q 127.823 6.199 128.327 5.029 Q 128.831 3.859 129.731 2.986 Q 130.631 2.113 131.855 1.627 Q 133.079 1.141 134.537 1.141 Q 135.977 1.141 137.192 1.618 Q 138.407 2.095 139.316 2.968 Q 140.225 3.841 140.72 5.011 Q 141.215 6.181 141.215 7.585 Q 141.215 8.989 140.72 10.159 Q 140.225 11.329 139.316 12.202 Q 138.407 13.075 137.192 13.552 Q 135.977 14.029 134.537 14.029 Z M 134.537 12.427 Q 135.581 12.427 136.472 12.067 Q 137.363 11.707 138.02 11.05 Q 138.677 10.393 139.046 9.511 Q 139.415 8.629 139.415 7.585 Q 139.415 6.541 139.046 5.659 Q 138.677 4.777 138.02 4.12 Q 137.363 3.463 136.472 3.103 Q 135.581 2.743 134.537 2.743 Q 133.475 2.743 132.584 3.103 Q 131.693 3.463 131.027 4.12 Q 130.361 4.777 129.992 5.659 Q 129.623 6.541 129.623 7.585 Q 129.623 8.629 129.992 9.511 Q 130.361 10.393 131.027 11.05 Q 131.693 11.707 132.584 12.067 Q 133.475 12.427 134.537 12.427 Z" fill="currentColor"/>
  <path d="M 153.003 1.285 L 154.803 1.285 L 154.803 13.885 L 153.003 13.885 Z M 145.767 13.885 L 143.967 13.885 L 143.967 1.285 L 145.767 1.285 Z M 153.165 8.269 L 145.587 8.269 L 145.587 6.703 L 153.165 6.703 Z" fill="currentColor"/>
  <path d="M 158.57 13.885 L 158.57 1.285 L 160.046 1.285 L 168.38 11.635 L 167.606 11.635 L 167.606 1.285 L 169.406 1.285 L 169.406 13.885 L 167.93 13.885 L 159.596 3.535 L 160.37 3.535 L 160.37 13.885 Z" fill="currentColor"/>
  <path d="M 176.861 14.029 Q 175.421 14.029 174.107 13.588 Q 172.793 13.147 172.037 12.445 L 172.703 11.041 Q 173.423 11.671 174.539 12.085 Q 175.655 12.499 176.861 12.499 Q 177.959 12.499 178.643 12.247 Q 179.327 11.995 179.651 11.554 Q 179.975 11.113 179.975 10.555 Q 179.975 9.907 179.552 9.511 Q 179.129 9.115 178.454 8.872 Q 177.779 8.629 176.969 8.449 Q 176.159 8.269 175.34 8.026 Q 174.521 7.783 173.846 7.405 Q 173.171 7.027 172.757 6.388 Q 172.343 5.749 172.343 4.741 Q 172.343 3.769 172.856 2.95 Q 173.369 2.131 174.44 1.636 Q 175.511 1.141 177.167 1.141 Q 178.265 1.141 179.345 1.429 Q 180.425 1.717 181.217 2.257 L 180.623 3.697 Q 179.813 3.157 178.913 2.914 Q 178.013 2.671 177.167 2.671 Q 176.105 2.671 175.421 2.941 Q 174.737 3.211 174.422 3.661 Q 174.107 4.111 174.107 4.669 Q 174.107 5.335 174.53 5.731 Q 174.953 6.127 175.628 6.361 Q 176.303 6.595 177.113 6.784 Q 177.923 6.973 178.742 7.207 Q 179.561 7.441 180.236 7.819 Q 180.911 8.197 181.325 8.827 Q 181.739 9.457 181.739 10.447 Q 181.739 11.401 181.217 12.22 Q 180.695 13.039 179.606 13.534 Q 178.517 14.029 176.861 14.029 Z" fill="currentColor"/>
  <path d="M 190.04 14.029 Q 188.6 14.029 187.367 13.543 Q 186.134 13.057 185.234 12.184 Q 184.334 11.311 183.83 10.141 Q 183.326 8.971 183.326 7.585 Q 183.326 6.199 183.83 5.029 Q 184.334 3.859 185.234 2.986 Q 186.134 2.113 187.358 1.627 Q 188.582 1.141 190.04 1.141 Q 191.48 1.141 192.695 1.618 Q 193.91 2.095 194.819 2.968 Q 195.728 3.841 196.223 5.011 Q 196.718 6.181 196.718 7.585 Q 196.718 8.989 196.223 10.159 Q 195.728 11.329 194.819 12.202 Q 193.91 13.075 192.695 13.552 Q 191.48 14.029 190.04 14.029 Z M 190.04 12.427 Q 191.084 12.427 191.975 12.067 Q 192.866 11.707 193.523 11.05 Q 194.18 10.393 194.549 9.511 Q 194.918 8.629 194.918 7.585 Q 194.918 6.541 194.549 5.659 Q 194.18 4.777 193.523 4.12 Q 192.866 3.463 191.975 3.103 Q 191.084 2.743 190.04 2.743 Q 188.978 2.743 188.087 3.103 Q 187.196 3.463 186.53 4.12 Q 185.864 4.777 185.495 5.659 Q 185.126 6.541 185.126 7.585 Q 185.126 8.629 185.495 9.511 Q 185.864 10.393 186.53 11.05 Q 187.196 11.707 188.087 12.067 Q 188.978 12.427 190.04 12.427 Z" fill="currentColor"/>
  <path d="M 199.471 13.885 L 199.471 1.285 L 200.947 1.285 L 209.281 11.635 L 208.507 11.635 L 208.507 1.285 L 210.307 1.285 L 210.307 13.885 L 208.831 13.885 L 200.497 3.535 L 201.271 3.535 L 201.271 13.885 Z" fill="currentColor"/>
</svg>